<svg width="60" height="61" viewBox="0 0 60 61" fill="none" xmlns="http://www.w3.org/2000/svg">
<path d="M58.1472 50.0048H1.8557C1.38487 50.0048 1.00195 49.6219 1.00195 49.151V11.6204C1.00195 11.1495 1.38487 10.7666 1.8557 10.7666C2.32652 10.7666 2.70949 11.1495 2.70949 11.6204V48.2973H57.2912V11.6204C57.2912 11.1495 57.6741 10.7666 58.145 10.7666C58.6158 10.7666 58.9988 11.1495 58.9988 11.6204V49.151C58.9988 49.6219 58.6158 50.0048 58.145 50.0048H58.1472Z" fill="black"/>
<path d="M30.0011 36.8626C29.8006 36.8626 29.6024 36.7928 29.4425 36.6531L1.29667 12.265C1.02634 12.0307 0.931769 11.6545 1.05567 11.3211C1.17957 10.9877 1.49942 10.7646 1.85535 10.7646H58.1469C58.5028 10.7646 58.8227 10.9854 58.9466 11.3211C59.0705 11.6545 58.9759 12.0329 58.7055 12.265L30.5598 36.6531C30.3999 36.7928 30.1994 36.8626 30.0011 36.8626ZM4.14417 12.4745L29.9989 34.878L55.8536 12.4745H4.14191H4.14417Z" fill="black"/>
<path d="M1.85509 50.0043C1.6163 50.0043 1.37754 49.9052 1.20858 49.7092C0.899956 49.3533 0.938226 48.8126 1.29416 48.504L22.711 29.9459C23.0669 29.6372 23.6076 29.6755 23.9162 30.0315C24.2248 30.3874 24.1865 30.9281 23.8306 31.2367L2.41376 49.7948C2.25157 49.9345 2.05333 50.0043 1.85509 50.0043Z" fill="black"/>
<path d="M58.1447 50.0052C57.9464 50.0052 57.7482 49.9376 57.586 49.7957L36.1692 31.2376C35.8132 30.929 35.775 30.3883 36.0836 30.0324C36.3922 29.6765 36.9306 29.6359 37.2888 29.9468L58.7056 48.5049C59.0615 48.8135 59.0998 49.3542 58.7912 49.7101C58.6222 49.9061 58.3834 50.0052 58.1447 50.0052Z" fill="black"/>
</svg>
