<svg width="90" height="91" viewBox="0 0 90 91" fill="none" xmlns="http://www.w3.org/2000/svg">
<rect width="90" height="90" transform="translate(0 0.0878906)" fill="#00C9E3"/>
<path d="M44.9025 14.1474C35.6957 14.1453 28.2305 21.5904 28.2305 30.775C28.2305 37.2373 31.9239 42.8401 37.3219 45.5912L37.3177 69.2033C37.3177 71.4712 38.4802 73.5828 40.4011 74.7979C41.4646 75.4723 42.6972 75.8301 43.9565 75.8301L46.2875 75.8301L50.6694 71.4609C51.7267 70.4061 51.9246 68.7653 51.1476 67.4906C50.5189 66.4564 50.5189 65.161 51.1476 64.1268L51.364 63.7732C52.0379 62.669 51.9864 61.2709 51.2382 60.2182L50.1005 58.6206C49.3029 57.498 49.3029 55.995 50.1005 54.8723C50.7086 54.0191 51.397 53.0507 51.8751 52.3783C52.2647 51.8314 52.4728 51.1776 52.4728 50.5052L52.4728 45.5973C57.8728 42.8463 61.5684 37.2455 61.5684 30.7832C61.5684 21.5986 54.1073 14.1515 44.9004 14.1515L44.9025 14.1474ZM44.9004 30.1047C42.4519 30.1047 40.4691 28.1247 40.4691 25.682C40.4691 23.2394 42.4539 21.2614 44.9025 21.2614C47.3511 21.2614 49.3338 23.2415 49.3338 25.6841C49.3338 28.1267 47.349 30.1067 44.9004 30.1047Z" fill="white"/>
</svg>
