<svg width="60" height="61" viewBox="0 0 60 61" fill="none" xmlns="http://www.w3.org/2000/svg">
<path d="M41.6498 59.1299C38.9873 59.1299 36.3277 58.3896 33.9556 56.9088L29.3311 54.0213C20.0165 48.2065 12.0119 40.2132 6.1857 30.9073L3.20141 26.1404C0.279764 21.476 0.268361 15.4419 3.17007 10.7661L6.05185 6.12451C7.16527 4.33051 9.09026 3.21996 11.2003 3.15162C13.299 3.07473 15.3009 4.06855 16.5311 5.78566L22.2149 13.7447C23.2429 15.1828 23.2002 17.1618 22.1152 18.5543L18.5813 23.0963C17.0038 25.1266 16.944 28.0056 18.439 30.0985C21.6311 34.5721 25.5181 38.4563 29.9889 41.6484C32.0819 43.1434 34.9608 43.0836 36.9911 41.5061L41.5359 37.9722C42.9313 36.8873 44.9075 36.8474 46.3455 37.8754L55.5519 44.4505C56.9899 45.4785 57.8157 47.1472 57.7588 48.9155C57.7018 50.6839 56.7706 52.2957 55.2671 53.2268L49.3128 56.9259C46.9492 58.3952 44.2981 59.1271 41.6498 59.1271V59.1299ZM11.4082 5.30724C11.3598 5.30724 11.3142 5.30724 11.2658 5.30724C9.85911 5.3528 8.62609 6.0647 7.88287 7.2607L5.00109 11.9023C2.52936 15.8833 2.54076 21.0203 5.02672 24.9899L8.01101 29.7568C13.6664 38.7866 21.4346 46.5435 30.4701 52.1846L35.0946 55.0721C39.124 57.5865 44.1329 57.5951 48.168 55.0892L54.1252 51.3901C55.0251 50.832 55.5633 49.9037 55.5974 48.8443C55.6316 47.785 55.156 46.8225 54.2932 46.2075L45.0869 39.6323C44.4206 39.1568 43.5036 39.1739 42.8572 39.6779L38.3124 43.2118C35.5332 45.3731 31.5949 45.4529 28.7302 43.4083C24.063 40.0766 20.008 36.0215 16.6763 31.3543C14.6317 28.4896 14.7114 24.5486 16.8728 21.7721L20.4067 17.2273C20.9107 16.5809 20.9278 15.664 20.4522 14.9977L14.7684 7.03861C13.9768 5.93089 12.758 5.30439 11.4082 5.30439V5.30724Z" fill="black"/>
<path d="M57.9225 27.7947C57.3274 27.7947 56.8433 27.3106 56.8433 26.7155C56.8433 13.7759 46.3156 3.24832 33.3761 3.24832C32.781 3.24832 32.2969 2.76421 32.2969 2.16906C32.2969 1.57391 32.781 1.08984 33.3761 1.08984C47.506 1.08984 59.0017 12.5856 59.0017 26.7183C59.0017 27.3135 58.5177 27.7976 57.9225 27.7976V27.7947Z" fill="black"/>
<path d="M45.4101 27.795C44.815 27.795 44.3309 27.3109 44.3309 26.7158C44.3309 20.676 39.4159 15.761 33.3761 15.761C32.781 15.761 32.2969 15.2769 32.2969 14.6818C32.2969 14.0866 32.781 13.6025 33.3761 13.6025C40.6062 13.6025 46.4894 19.4857 46.4894 26.7158C46.4894 27.3109 46.0053 27.795 45.4101 27.795Z" fill="black"/>
</svg>
