<svg width="90" height="91" viewBox="0 0 90 91" fill="none" xmlns="http://www.w3.org/2000/svg">
<rect width="90" height="90" transform="translate(0 0.0878906)" fill="#FD5003"/>
<path d="M38.8918 54.0301C40.9314 52.2136 42.8348 50.5191 44.8388 48.7346C46.7896 50.4623 48.7184 52.1705 50.7935 54.0088C49.7326 54.859 48.7048 55.6016 47.786 56.4601C47.4327 56.7897 47.0771 57.4257 47.1481 57.8518C47.7629 61.5533 48.4747 65.2383 49.506 68.9848C50.1237 67.1973 50.7621 65.4164 51.3556 63.6212C52.9413 58.8239 54.5074 54.02 56.0819 49.2192C56.6878 47.3719 57.3345 47.0933 59.0018 48.0133C62.6815 50.0434 66.3487 52.0953 70.0272 54.1271C71.9602 55.1951 73.4631 56.6714 74.1997 58.7724C74.9204 60.8261 75.6097 62.9011 76.1256 65.0129C76.7658 67.6298 76.1576 68.8789 73.5583 69.625C66.202 71.7367 58.764 73.5674 51.4242 75.7335C47.0813 77.0151 42.8975 76.9245 38.5836 75.7151C31.4201 73.7076 24.1815 71.9674 17.0311 69.9167C13.5674 68.9233 13.2384 68.0387 13.9455 64.4904C14.0804 63.8129 14.2833 63.1491 14.4164 62.471C15.2945 57.989 17.6168 54.7892 21.9781 52.942C25.0477 51.6415 27.8748 49.7676 30.8107 48.1512C32.7626 47.0767 33.2182 47.2648 33.8791 49.3363C35.753 55.2135 37.6399 61.0865 39.5273 66.9595C39.7202 67.5588 39.9527 68.1458 40.5107 68.7534C40.9763 66.1376 41.2751 63.478 41.9544 60.919C42.6366 58.3464 42.452 56.3039 39.9012 54.9318C39.5445 54.7401 39.277 54.381 38.8924 54.0307L38.8918 54.0301Z" fill="white"/>
<path d="M60.9784 29.9763C60.9021 39.0473 53.7108 46.1019 44.6048 46.0368C35.3705 45.9711 28.2786 38.8243 28.3621 29.668C28.4443 20.6804 35.9018 13.4128 44.935 13.5187C53.9078 13.624 61.0541 20.9544 60.9784 29.9763Z" fill="white"/>
</svg>
