<svg width="35" height="35" viewBox="0 0 35 35" fill="none" xmlns="http://www.w3.org/2000/svg">
<path d="M0 0.190918L3.07045 0.190918L3.07045 25.778L-4.31366e-06 25.778L0 0.190918Z" fill="#00C9E3"/>
<path d="M25.5879 0.190918L25.5879 3.26137L0.000800735 3.26136L0.000801511 0.190911L25.5879 0.190918Z" fill="#00C9E3"/>
<path d="M34.4949 34.6858L31.4244 34.6858L31.4244 9.0987L34.4949 9.0987L34.4949 34.6858Z" fill="#FD5003"/>
<path d="M8.90735 34.6858L8.90735 31.6153L34.4944 31.6153L34.4944 34.6858L8.90735 34.6858Z" fill="#FD5003"/>
<path d="M34.4949 9.09912L34.4949 12.1696L8.90778 12.1696L8.90778 9.09911L34.4949 9.09912Z" fill="#FD5003"/>
<path d="M25.5879 25.7781L22.5174 25.7781L22.5174 0.190986L25.5879 0.190987L25.5879 25.7781Z" fill="#00C9E3"/>
<path d="M0 25.7777L1.03528e-06 22.7073L25.5871 22.7073L25.5871 25.7777L0 25.7777Z" fill="#00C9E3"/>
<path d="M8.90735 9.09912L11.9778 9.09912L11.9778 34.6862L8.90734 34.6862L8.90735 9.09912Z" fill="#FD5003"/>
</svg>
