<svg width="190" height="184" viewBox="0 0 190 184" fill="none" xmlns="http://www.w3.org/2000/svg">
<path d="M52.5 91.3612H4.49033L95 181.871L185.51 91.3612H136.5" stroke="#74C348" stroke-width="3"/>
<path d="M94.0006 49.6943C104.423 61.1041 110.345 75.9111 110.667 91.361C110.345 106.811 104.423 121.618 94.0006 133.028M94.0006 49.6943C83.5786 61.1041 77.6558 75.9111 77.334 91.361C77.6558 106.811 83.5786 121.618 94.0006 133.028M94.0006 49.6943C70.9888 49.6943 52.334 68.3491 52.334 91.361C52.334 114.373 70.9888 133.028 94.0006 133.028M94.0006 49.6943C117.013 49.6943 135.667 68.3491 135.667 91.361C135.667 114.373 117.013 133.028 94.0006 133.028M54.4174 78.861H133.584M54.4173 103.861H133.584" stroke="#74C348" stroke-width="3" stroke-linecap="round" stroke-linejoin="round"/>
</svg>
