<svg width="125" height="38" viewBox="0 0 125 38" fill="none" xmlns="http://www.w3.org/2000/svg">
<path d="M122.682 34.3011C122.682 33.9504 122.608 33.6531 122.459 33.4094C122.316 33.1597 122.046 32.9309 121.648 32.7228C121.249 32.5088 120.676 32.2859 119.927 32.054C119.314 31.8697 118.747 31.6587 118.224 31.4209C117.706 31.1831 117.255 30.9097 116.868 30.6005C116.482 30.2855 116.179 29.9228 115.959 29.5127C115.745 29.0965 115.638 28.618 115.638 28.077C115.638 27.3696 115.834 26.7484 116.226 26.2133C116.618 25.6724 117.162 25.2503 117.858 24.9471C118.553 24.6439 119.359 24.4924 120.274 24.4924C121.249 24.4924 122.088 24.6707 122.789 25.0274C123.491 25.3781 124.029 25.8537 124.403 26.4541C124.784 27.0545 124.974 27.7233 124.974 28.4604H122.673C122.673 28.0503 122.584 27.6847 122.406 27.3636C122.233 27.0367 121.969 26.784 121.612 26.6057C121.255 26.4214 120.801 26.3293 120.248 26.3293C119.731 26.3293 119.3 26.4065 118.955 26.5611C118.61 26.7157 118.354 26.9237 118.188 27.1853C118.021 27.4469 117.938 27.7441 117.938 28.077C117.938 28.3921 118.039 28.6715 118.241 28.9152C118.443 29.1589 118.75 29.3819 119.16 29.584C119.57 29.7802 120.081 29.9704 120.694 30.1547C121.657 30.4341 122.456 30.761 123.092 31.1356C123.728 31.5101 124.201 31.953 124.51 32.4642C124.825 32.9754 124.983 33.5818 124.983 34.2833C124.983 35.0145 124.792 35.6476 124.412 36.1826C124.032 36.7117 123.494 37.1189 122.798 37.4043C122.102 37.6896 121.285 37.8323 120.346 37.8323C119.722 37.8323 119.106 37.749 118.5 37.5826C117.894 37.4102 117.344 37.1546 116.85 36.8157C116.363 36.4709 115.97 36.0399 115.673 35.5228C115.382 35.0056 115.236 34.3962 115.236 33.6948H117.537C117.537 34.1109 117.608 34.4646 117.751 34.7559C117.894 35.0472 118.093 35.2879 118.348 35.4782C118.604 35.6625 118.901 35.7962 119.24 35.8794C119.585 35.9627 119.953 36.0043 120.346 36.0043C120.863 36.0043 121.294 35.9329 121.639 35.7903C121.984 35.6416 122.242 35.4395 122.415 35.1839C122.593 34.9283 122.682 34.634 122.682 34.3011Z" fill="#74C348"/>
<path d="M113.883 37.6539H107.026V35.8081H113.883V37.6539ZM107.668 37.6539H105.367V24.6707H107.668V37.6539ZM112.982 31.8756H107.026V30.0566H112.982V31.8756ZM113.838 26.5254H107.026V24.6707H113.838V26.5254Z" fill="#74C348"/>
<path d="M103.198 33.4094C103.127 34.2595 102.886 35.0204 102.476 35.6922C102.072 36.358 101.504 36.8811 100.773 37.2616C100.042 37.642 99.1471 37.8323 98.0889 37.8323C97.0189 37.8323 96.0885 37.5826 95.2979 37.0832C94.5132 36.5779 93.9068 35.8646 93.4788 34.9431C93.0567 34.0217 92.8457 32.9338 92.8457 31.6795V30.654C92.8457 29.3938 93.0627 28.3059 93.4967 27.3904C93.9306 26.469 94.5459 25.7556 95.3425 25.2503C96.145 24.745 97.0902 24.4924 98.1781 24.4924C99.2184 24.4924 100.095 24.6856 100.809 25.072C101.528 25.4524 102.084 25.9815 102.476 26.6592C102.874 27.3309 103.115 28.1038 103.198 28.9776H100.907C100.818 28.1513 100.571 27.5093 100.167 27.0515C99.7683 26.5938 99.1055 26.3649 98.1781 26.3649C97.5064 26.3649 96.9476 26.5314 96.5017 26.8643C96.0618 27.1912 95.7289 27.6728 95.503 28.3089C95.2771 28.939 95.1641 29.7148 95.1641 30.6362V31.6795C95.1641 32.5593 95.2652 33.3202 95.4673 33.9623C95.6694 34.5984 95.9845 35.0918 96.4125 35.4425C96.8405 35.7873 97.3993 35.9597 98.0889 35.9597C98.7191 35.9597 99.2273 35.8616 99.6138 35.6654C100.006 35.4692 100.303 35.1839 100.505 34.8094C100.708 34.4289 100.838 33.9623 100.898 33.4094H103.198Z" fill="#74C348"/>
<path d="M90.3268 37.6538H88.0352V24.6706H90.3268V37.6538Z" fill="#74C348"/>
<path d="M83.725 24.6706H86.2663L81.6295 37.6538H79.9085L80.3454 35.2016L83.725 24.6706ZM80.604 35.2016L81.0677 37.6538H79.3467L74.7188 24.6706H77.2512L80.604 35.2016Z" fill="#74C348"/>
<path d="M69.0144 24.6707C70.0072 24.6707 70.8543 24.8193 71.5558 25.1165C72.2573 25.4137 72.7923 25.8536 73.1608 26.4362C73.5354 27.0188 73.7226 27.7351 73.7226 28.5852C73.7226 29.2392 73.6037 29.8128 73.3659 30.3062C73.1282 30.7996 72.7893 31.2158 72.3494 31.5546C71.9154 31.8875 71.4012 32.1461 70.8067 32.3304L70.1112 32.6871H66.0004L65.9826 30.8413H69.0323C69.5613 30.8413 70.0012 30.7491 70.352 30.5648C70.7087 30.3805 70.9732 30.1279 71.1456 29.8069C71.3239 29.4859 71.4131 29.1203 71.4131 28.7101C71.4131 28.0443 71.2199 27.5152 70.8335 27.1228C70.453 26.7245 69.8467 26.5254 69.0144 26.5254H66.7049V37.6539H64.4043V24.6707H69.0144ZM68.7469 31.831L71.1634 31.8221L74.2398 37.538V37.6539H71.7787L68.7469 31.831Z" fill="#74C348"/>
<path d="M62.4103 37.6539H55.5531V35.8081H62.4103V37.6539ZM56.1951 37.6539H53.8945V24.6707H56.1951V37.6539ZM61.5097 31.8756H55.5531V30.0566H61.5097V31.8756ZM62.3657 26.5254H55.5531V24.6707H62.3657V26.5254Z" fill="#74C348"/>
<path d="M49.4418 34.3011C49.4418 33.9504 49.3675 33.6531 49.2189 33.4094C49.0762 33.1597 48.8058 32.9309 48.4075 32.7228C48.0092 32.5088 47.4355 32.2859 46.6865 32.054C46.0742 31.8697 45.5064 31.6587 44.9833 31.4209C44.4661 31.1831 44.0143 30.9097 43.6279 30.6005C43.2415 30.2855 42.9383 29.9228 42.7184 29.5127C42.5044 29.0965 42.3974 28.618 42.3974 28.077C42.3974 27.3696 42.5935 26.7484 42.9859 26.2133C43.3782 25.6724 43.9222 25.2503 44.6177 24.9471C45.3132 24.6439 46.1187 24.4924 47.0342 24.4924C48.0092 24.4924 48.8474 24.6707 49.5488 25.0274C50.2503 25.3781 50.7883 25.8537 51.1628 26.4541C51.5433 27.0545 51.7335 27.7233 51.7335 28.4604H49.4329C49.4329 28.0503 49.3437 27.6847 49.1654 27.3636C48.993 27.0367 48.7285 26.784 48.3718 26.6057C48.0151 26.4214 47.5603 26.3293 47.0075 26.3293C46.4903 26.3293 46.0593 26.4065 45.7145 26.5611C45.3697 26.7157 45.1141 26.9237 44.9476 27.1853C44.7812 27.4469 44.698 27.7441 44.698 28.077C44.698 28.3921 44.799 28.6715 45.0011 28.9152C45.2033 29.1589 45.5094 29.3819 45.9196 29.584C46.3298 29.7802 46.841 29.9704 47.4533 30.1547C48.4164 30.4341 49.2159 30.761 49.852 31.1356C50.4881 31.5101 50.9607 31.953 51.2698 32.4642C51.5849 32.9754 51.7424 33.5818 51.7424 34.2833C51.7424 35.0145 51.5522 35.6476 51.1717 36.1826C50.7913 36.7117 50.2533 37.1189 49.5578 37.4043C48.8622 37.6896 48.0448 37.8323 47.1056 37.8323C46.4814 37.8323 45.8661 37.749 45.2597 37.5826C44.6534 37.4102 44.1035 37.1546 43.6101 36.8157C43.1226 36.4709 42.7303 36.0399 42.433 35.5228C42.1417 35.0056 41.9961 34.3962 41.9961 33.6948H44.2967C44.2967 34.1109 44.368 34.4646 44.5107 34.7559C44.6534 35.0472 44.8525 35.2879 45.1081 35.4782C45.3638 35.6625 45.661 35.7962 45.9999 35.8794C46.3446 35.9627 46.7132 36.0043 47.1056 36.0043C47.6228 36.0043 48.0537 35.9329 48.3985 35.7903C48.7433 35.6416 49.0019 35.4395 49.1743 35.1839C49.3527 34.9283 49.4418 34.634 49.4418 34.3011Z" fill="#74C348"/>
<path d="M124.98 20.3865H120.823L113.344 7.98302V20.3865H109.188V1.1128H113.344L120.836 13.5295V1.1128H124.98V20.3865Z" fill="#FFB100"/>
<path d="M106.409 11.1468C106.409 13.1236 106.06 14.8224 105.363 16.2433C104.666 17.6552 103.699 18.7451 102.464 19.5129C101.228 20.2718 99.7986 20.6513 98.1749 20.6513C96.5511 20.6513 95.1126 20.2718 93.8595 19.5129C92.6151 18.7451 91.64 17.6552 90.934 16.2433C90.228 14.8224 89.875 13.1236 89.875 11.1468V10.3658C89.875 8.38906 90.2236 6.69467 90.9208 5.28268C91.6268 3.86186 92.6019 2.76757 93.8462 1.9998C95.0905 1.23203 96.5246 0.848145 98.1484 0.848145C99.7722 0.848145 101.202 1.23203 102.437 1.9998C103.682 2.76757 104.652 3.86186 105.35 5.28268C106.056 6.69467 106.409 8.38906 106.409 10.3658V11.1468ZM102.212 10.3394C102.212 9.01563 102.053 7.90368 101.736 7.00354C101.418 6.1034 100.955 5.42388 100.346 4.96498C99.7369 4.50608 99.0044 4.27663 98.1484 4.27663C97.2747 4.27663 96.5378 4.50608 95.9377 4.96498C95.3376 5.42388 94.8787 6.1034 94.561 7.00354C94.2522 7.90368 94.0977 9.01563 94.0977 10.3394V11.1468C94.0977 12.4618 94.2566 13.5737 94.5743 14.4827C94.892 15.3828 95.3509 16.0668 95.951 16.5345C96.5599 17.0022 97.3012 17.2361 98.1749 17.2361C99.0309 17.2361 99.7589 17.0022 100.359 16.5345C100.968 16.0668 101.427 15.3828 101.736 14.4827C102.053 13.5737 102.212 12.4618 102.212 11.1468V10.3394Z" fill="#FFB100"/>
<path d="M83.0179 20.3865H78.8614V1.1128H83.0179V20.3865ZM88.8688 4.4751H73.0898V1.1128H88.8688V4.4751Z" fill="#FFB100"/>
<path d="M64.5119 1.1128C66.0033 1.1128 67.2829 1.33784 68.3508 1.78791C69.4274 2.22916 70.2525 2.8822 70.8262 3.74705C71.3998 4.60307 71.6866 5.66647 71.6866 6.93726C71.6866 7.99626 71.5101 8.8964 71.1571 9.63769C70.8129 10.379 70.3275 10.9923 69.701 11.4777C69.0744 11.9631 68.3375 12.3558 67.4903 12.6558L66.1666 13.4104H59.9847L59.9582 10.0481H64.4987C65.1694 10.0481 65.7298 9.93774 66.1798 9.71712C66.6299 9.48767 66.9652 9.16556 67.1859 8.75079C67.4065 8.33602 67.5168 7.84623 67.5168 7.28144C67.5168 6.41659 67.2697 5.73266 66.7755 5.22964C66.2901 4.72662 65.5356 4.4751 64.5119 4.4751H61.4144V20.3865H57.2578V1.1128H64.5119ZM63.5853 11.8219L67.9801 11.7954L72.3882 20.1879V20.3865H67.9272L63.5853 11.8219Z" fill="#FFB100"/>
<path d="M55.0085 20.3865H44.8289V17.0374H55.0085V20.3865ZM46.1659 20.3865H41.9961V1.1128H46.1659V20.3865ZM53.6847 12.0999H44.8289V8.85669H53.6847V12.0999ZM54.9952 4.4751H44.8289V1.1128H54.9952V4.4751Z" fill="#FFB100"/>
<path d="M0 2.19088L3.07045 2.19088L3.07045 27.778L-4.31366e-06 27.778L0 2.19088Z" fill="#00C9E3"/>
<path d="M25.5879 2.19087L25.5879 5.26132L0.000799928 5.26132L0.000800704 2.19087L25.5879 2.19087Z" fill="#00C9E3"/>
<path d="M34.4941 36.6858L31.4237 36.6858L31.4237 11.0987L34.4941 11.0987L34.4941 36.6858Z" fill="#FD5003"/>
<path d="M8.9082 36.6858L8.9082 33.6153L34.4953 33.6154L34.4953 36.6858L8.9082 36.6858Z" fill="#FD5003"/>
<path d="M34.4941 11.099L34.4941 14.1695L8.90705 14.1695L8.90705 11.099L34.4941 11.099Z" fill="#FD5003"/>
<path d="M25.5879 27.778L22.5174 27.778L22.5174 2.19094L25.5879 2.19094L25.5879 27.778Z" fill="#00C9E3"/>
<path d="M0 27.7777L1.03528e-06 24.7072L25.5871 24.7072L25.5871 27.7777L0 27.7777Z" fill="#00C9E3"/>
<path d="M8.9082 11.099L11.9787 11.099L11.9786 36.6861L8.9082 36.6861L8.9082 11.099Z" fill="#FD5003"/>
</svg>
