<svg width="190" height="184" viewBox="0 0 190 184" fill="none" xmlns="http://www.w3.org/2000/svg">
<path d="M58.9902 91.3419L4.49033 91.3419L95 181.852L185.51 91.3419H133.99" stroke="#FFB100" stroke-width="3"/>
<path d="M133.99 83.499H58.9902M113.157 50.1656V66.8323M79.8236 50.1656V66.8323M78.9902 133.499H113.99C120.991 133.499 124.491 133.499 127.165 132.137C129.517 130.938 131.429 129.026 132.628 126.674C133.99 124 133.99 120.5 133.99 113.499V78.499C133.99 71.4983 133.99 67.998 132.628 65.3241C131.429 62.9721 129.517 61.0598 127.165 59.8614C124.491 58.499 120.991 58.499 113.99 58.499H78.9902C71.9896 58.499 68.4892 58.499 65.8154 59.8614C63.4633 61.0598 61.5511 62.9721 60.3527 65.3241C58.9902 67.998 58.9902 71.4983 58.9902 78.499V113.499C58.9902 120.5 58.9902 124 60.3527 126.674C61.5511 129.026 63.4633 130.938 65.8154 132.137C68.4892 133.499 71.9896 133.499 78.9902 133.499Z" stroke="#FFB100" stroke-width="3" stroke-linecap="round" stroke-linejoin="round"/>
</svg>
