<svg width="190" height="184" viewBox="0 0 190 184" fill="none" xmlns="http://www.w3.org/2000/svg">
<path d="M126 91.3612H185.51L95 181.871L4.49033 91.3612H66" stroke="#FD5003" stroke-width="3"/>
<path d="M85.1463 122.074L87.5815 127.551C88.3054 129.181 89.4868 130.566 90.9825 131.539C92.4781 132.511 94.2236 133.028 96.0074 133.028C97.7912 133.028 99.5368 132.511 101.032 131.539C102.528 130.566 103.709 129.181 104.433 127.551L106.869 122.074C107.735 120.131 109.194 118.51 111.035 117.444C112.888 116.375 115.032 115.92 117.16 116.143L123.119 116.778C124.892 116.965 126.682 116.634 128.271 115.825C129.861 115.015 131.181 113.762 132.072 112.217C132.965 110.674 133.39 108.904 133.296 107.123C133.202 105.342 132.594 103.627 131.544 102.185L128.017 97.3379C126.761 95.599 126.089 93.5061 126.1 91.361C126.1 89.2218 126.777 87.1375 128.035 85.4073L131.563 80.5601C132.612 79.1183 133.221 77.403 133.315 75.6221C133.408 73.8413 132.983 72.0716 132.091 70.5277C131.2 68.9828 129.879 67.7297 128.29 66.9203C126.701 66.1109 124.911 65.7799 123.137 65.9675L117.179 66.6017C115.051 66.8252 112.907 66.3698 111.054 65.3008C109.208 64.2287 107.75 62.6 106.887 60.648L104.433 55.1712C103.709 53.5409 102.528 52.1556 101.032 51.1835C99.5368 50.2113 97.7912 49.694 96.0074 49.6943C94.2236 49.694 92.4781 50.2113 90.9825 51.1835C89.4868 52.1556 88.3054 53.5409 87.5815 55.1712L85.1463 60.648C84.2835 62.6 82.825 64.2287 80.9797 65.3008C79.1264 66.3698 76.9825 66.8252 74.8547 66.6017L68.8778 65.9675C67.1042 65.7799 65.3142 66.1109 63.725 66.9203C62.1357 67.7297 60.8154 68.9828 59.9241 70.5277C59.0317 72.0716 58.6065 73.8413 58.7002 75.6221C58.7939 77.403 59.4024 79.1183 60.4519 80.5601L63.9797 85.4073C65.2378 87.1375 65.9152 89.2218 65.9149 91.361C65.9152 93.5002 65.2378 95.5845 63.9797 97.3147L60.4519 102.162C59.4024 103.604 58.7939 105.319 58.7002 107.1C58.6065 108.881 59.0317 110.65 59.9241 112.194C60.8163 113.738 62.1367 114.991 63.7258 115.8C65.3148 116.609 67.1043 116.941 68.8778 116.755L74.8361 116.12C76.9639 115.897 79.1079 116.352 80.9611 117.421C82.8133 118.49 84.2787 120.119 85.1463 122.074Z" stroke="#FD5003" stroke-width="3" stroke-linecap="round" stroke-linejoin="round"/>
<path d="M96 103.861C102.904 103.861 108.5 98.2646 108.5 91.361C108.5 84.4574 102.904 78.861 96 78.861C89.0964 78.861 83.5 84.4574 83.5 91.361C83.5 98.2646 89.0964 103.861 96 103.861Z" stroke="#FD5003" stroke-width="3" stroke-linecap="round" stroke-linejoin="round"/>
</svg>
