<svg width="190" height="184" viewBox="0 0 190 184" fill="none" xmlns="http://www.w3.org/2000/svg">
<path d="M129.5 91.3419L185.51 91.3419L95 181.852L4.49033 91.3419H62.5" stroke="#00C9E3" stroke-width="3"/>
<path d="M93.0911 131.894C94.0135 132.432 94.4748 132.702 95.1257 132.841C95.6308 132.949 96.3679 132.949 96.873 132.841C97.524 132.702 97.9852 132.432 98.9076 131.894C107.025 127.159 129.333 112.284 129.333 91.8323V71.9056C129.333 68.5743 129.333 66.9087 128.788 65.4769C128.307 64.2121 127.524 63.0835 126.509 62.1887C125.36 61.1758 123.8 60.591 120.681 59.4213L98.3402 51.0434C97.4739 50.7186 97.0408 50.5562 96.5953 50.4918C96.2 50.4347 95.7987 50.4347 95.4035 50.4918C94.9579 50.5562 94.5248 50.7186 93.6585 51.0434L71.3177 59.4213C68.1985 60.591 66.6389 61.1758 65.4896 62.1887C64.4743 63.0835 63.6922 64.2121 63.2109 65.4769C62.666 66.9087 62.666 68.5743 62.666 71.9056V91.8323C62.666 112.284 84.9742 127.159 93.0911 131.894Z" stroke="#00C9E3" stroke-width="3" stroke-linecap="round" stroke-linejoin="round"/>
<path d="M96 50.5823V133.082" stroke="#00C9E3" stroke-width="3" stroke-linecap="round" stroke-linejoin="round"/>
</svg>
