<svg width="76" height="74" viewBox="0 0 76 74" fill="none" xmlns="http://www.w3.org/2000/svg">
<path d="M14.2869 42.0942C13.2327 42.0942 12.3789 41.2325 12.3789 40.1685C12.3789 39.1045 13.2327 38.2427 14.2869 38.2427H61.7142C62.7683 38.2427 63.6222 39.1045 63.6222 40.1685C63.6222 41.2325 62.7683 42.0942 61.7142 42.0942H14.2869ZM14.2869 30.009C13.2327 30.009 12.3789 29.1472 12.3789 28.0833C12.3789 27.0193 13.2327 26.1575 14.2869 26.1575H61.7142C62.7683 26.1575 63.6222 27.0193 63.6222 28.0833C63.6222 29.1472 62.7683 30.009 61.7142 30.009H14.2869ZM66.1407 4.44719H9.8591C8.25756 4.44719 6.80031 5.10916 5.74255 6.17795C4.6848 7.24553 4.02773 8.71631 4.02773 10.3327V45.835C4.02773 47.4514 4.68361 48.9222 5.74255 49.9898C6.8015 51.0573 8.25756 51.7205 9.8591 51.7205H37.3834V51.7289C37.771 51.7289 38.1633 51.8481 38.5008 52.096L57.7598 66.29L54.1572 54.2625C54.0928 54.0687 54.0571 53.8605 54.0571 53.6451C54.0571 52.5811 54.9109 51.7193 55.9651 51.7193H66.1407C67.7423 51.7193 69.1995 51.0561 70.2573 49.9886C71.315 48.921 71.9721 47.4502 71.9721 45.8338V10.3315C71.9721 8.71511 71.3162 7.24432 70.2573 6.17674C69.1995 5.10916 67.7423 4.44598 66.1407 4.44598V4.44719ZM9.8591 0.595703H66.1407C68.7953 0.595703 71.2077 1.68976 72.9548 3.45423C74.703 5.21748 75.787 7.65234 75.787 10.3315V45.8338C75.787 48.513 74.703 50.9478 72.9548 52.7111C71.2077 54.4743 68.7953 55.5696 66.1407 55.5696H58.5337L63.0545 70.6638C63.3586 71.6808 62.7886 72.7556 61.7798 73.0638C61.1227 73.2635 60.4429 73.089 59.9636 72.6618L36.774 55.5708H9.8591C7.20457 55.5708 4.79213 54.4755 3.0451 52.7123C1.29688 50.9478 0.212891 48.5142 0.212891 45.835V10.3315C0.212891 7.65114 1.29688 5.21748 3.0451 3.45423C4.79213 1.68976 7.20457 0.595703 9.8591 0.595703ZM27.3639 17.9238C26.3098 17.9238 25.4559 17.062 25.4559 15.998C25.4559 14.934 26.3098 14.0723 27.3639 14.0723H61.713C62.7671 14.0723 63.621 14.934 63.621 15.998C63.621 17.062 62.7671 17.9238 61.713 17.9238H27.3639Z" fill="black"/>
</svg>
